<?xml version="1.0" encoding="UTF-8"?>
<svg width="40px" height="45px" viewBox="0 0 40 45" version="1.1" xmlns="http://www.w3.org/2000/svg" xmlns:xlink="http://www.w3.org/1999/xlink">
    <!-- Generator: Sketch 52.5 (67469) - http://www.bohemiancoding.com/sketch -->
    <title>protect icon</title>
    <desc>Created with Sketch.</desc>
    <g id="Page-1" stroke="none" stroke-width="1" fill="none" fill-rule="evenodd">
        <g id="Desktop-HD" transform="translate(-174.000000, -1067.000000)" fill="#F1F1F1">
            <g id="product-detail-copy" transform="translate(0.000000, 894.000000)">
                <g id="protect-icon" transform="translate(174.000000, 172.500000)">
                    <path d="M19.9829269,45.4998492 C19.6235461,45.4982934 19.2671857,45.435469 18.929808,45.3141901 C15.9810752,44.2827504 6.03963299,40.1982495 2.33265454,31.5547853 C-0.426516908,25.118602 -0.131643623,14.5772888 0.226416795,10.3483863 C0.226416795,8.51242377 2.05884364,7.8316736 2.90133874,7.52224171 C6.50300529,6.1401126 15.5387652,2.53007386 18.5506852,0.879770439 C19.4955829,0.373409854 20.6387699,0.373409854 21.5836676,0.879770439 C24.6587747,2.53007386 33.5681604,6.1194838 37.1487646,7.50161292 C38.5504883,7.81924263 39.6162921,8.93650267 39.8447489,10.3277575 C40.0974974,14.55666 40.3923707,25.0979732 37.6331992,31.5341565 C33.9262208,40.1776207 24.0479658,44.2414929 21.1202953,45.2935613 C20.7583413,45.4336488 20.372097,45.5037031 19.9829269,45.4998492 Z M19.9829269,2.57133145 C19.8068182,2.57295681 19.6336009,2.61536968 19.4774298,2.6951042 C16.2759485,4.407294 7.34550039,7.97607515 3.59639719,9.50260582 C2.48009119,9.91518167 2.24840503,10.2039848 2.22734266,10.5340455 C1.9956565,14.659804 1.70078322,24.7885413 4.33358041,30.8327775 C7.70356081,38.6923476 16.9710069,42.4674167 19.6880536,43.4369699 C19.9047562,43.5198206 20.1453471,43.5198206 20.3620497,43.4369699 C23.1001588,42.4674167 32.2833554,38.6923476 35.6533358,30.8327775 C38.2229458,24.7885413 37.9491349,14.6185464 37.7595735,10.5340455 C37.7595735,10.2039848 37.506825,9.93581047 36.4115813,9.50260582 C32.6203534,8.03796153 23.7741548,4.46918038 20.5937358,2.75699058 C20.4129781,2.63808326 20.2006602,2.57354791 19.9829269,2.57133145 Z" id="Shape" fill-rule="nonzero"></path>
                    <path d="M18.3239925,28.5 C18.0149882,28.4716565 17.7321895,28.3145756 17.5448723,28.0672364 L13.2164267,22.2898425 C13.0442304,22.0602904 12.9702931,21.7717483 13.0108802,21.4876921 C13.0514672,21.2036359 13.203254,20.947334 13.432849,20.7751699 C13.9139965,20.4287665 14.5829145,20.5243084 14.9478049,20.9915517 L18.5404148,25.7952276 L29.1451065,15.8200269 C29.3482908,15.6152078 29.624874,15.5 29.9134056,15.5 C30.2019371,15.5 30.4785203,15.6152078 30.6817046,15.8200269 C30.8852802,16.0194521 31,16.2924106 31,16.5773631 C31,16.8623157 30.8852802,17.1352742 30.6817046,17.3346994 L19.1247549,28.1537891 C18.9167126,28.3742409 18.6271401,28.4994381 18.3239925,28.5 Z" id="Path"></path>
                </g>
            </g>
        </g>
    </g>
</svg>