<?xml version="1.0" encoding="UTF-8"?>
<svg width="46px" height="47px" viewBox="0 0 46 47" version="1.1" xmlns="http://www.w3.org/2000/svg" xmlns:xlink="http://www.w3.org/1999/xlink">
    <!-- Generator: Sketch 52.5 (67469) - http://www.bohemiancoding.com/sketch -->
    <title>invest icon</title>
    <desc>Created with Sketch.</desc>
    <g id="Page-1" stroke="none" stroke-width="1" fill="none" fill-rule="evenodd">
        <g id="Desktop-HD" transform="translate(-174.000000, -1340.000000)" fill="#F1F1F1">
            <g id="product-detail-copy" transform="translate(0.000000, 894.000000)">
                <g id="invest-icon" transform="translate(174.000000, 446.000000)">
                    <path d="M13.7755828,26 C15.1241815,26 16.4727802,26 17.8213789,26 C18.3748917,26 18.9284045,26 19.4819727,26 C20.7155471,26 21.9032448,25.5095377 22.7594997,24.6429445 C23.7706717,23.6195309 24.1420073,22.2087965 23.9224306,20.8250907 C23.7173151,19.5323094 22.7936857,18.3720767 21.6261006,17.7602557 C20.6957115,17.2727125 19.7141267,17.2433594 18.6910423,17.2433594 C18.3138889,17.2433594 17.936791,17.2433594 17.5596377,17.2433594 C17.3831674,17.2433594 17.2079715,17.2351967 17.0324431,17.2158983 C17.1964469,17.2339534 16.9534332,17.1975188 16.9407451,17.1951402 C16.867442,17.1810853 16.7950809,17.1627599 16.7228306,17.1444345 C16.6510789,17.1262712 16.5805462,17.1038915 16.5100689,17.0815117 C16.4833075,17.0730247 16.2160256,16.9678832 16.3534896,17.0268057 C16.2200149,16.969559 16.0920255,16.9009061 15.9664739,16.8287936 C15.9039752,16.7928996 15.8436927,16.7534377 15.7834656,16.714084 C15.7737695,16.7077593 15.5844448,16.5686697 15.7082788,16.6640269 C15.5949167,16.5766702 15.4895332,16.4799076 15.3873632,16.380388 C15.3362783,16.3306012 15.2881299,16.2780034 15.2400923,16.2254597 C15.2083997,16.1901062 15.1774273,16.154158 15.1471199,16.1176153 C15.1940493,16.1783217 15.1906695,16.1732403 15.1369804,16.1024251 C15.0513217,15.9881479 14.9761348,15.8667351 14.9048264,15.7435925 C14.8689783,15.6816428 14.8369532,15.617747 14.8049282,15.5539053 C14.7004312,15.3455683 14.8551266,15.6886703 14.7675841,15.4720625 C14.7132855,15.3376759 14.6715089,15.1988026 14.6342202,15.0591725 C14.6153265,14.9884655 14.6008099,14.9167314 14.5864042,14.8451054 C14.5717768,14.7543432 14.5694498,14.748559 14.5794784,14.827699 C14.5732174,14.7784527 14.5680092,14.7290984 14.5638537,14.6796359 C14.5496142,14.5292484 14.5496696,14.3778878 14.5543791,14.2271219 C14.5567616,14.1522525 14.5637983,14.0775993 14.5708903,14.0031083 C14.5936625,13.7629856 14.5440181,14.1473333 14.5864042,13.9118595 C14.6122237,13.7685535 14.6513408,13.6278422 14.6947797,13.4886986 C14.7162775,13.4198836 14.7419862,13.352366 14.7676395,13.2849565 C14.8014376,13.2018163 14.8035984,13.1960862 14.7741775,13.2677663 C14.7942901,13.2244664 14.8152338,13.1815989 14.8370641,13.1391639 C14.9010034,13.0117507 14.976301,12.8901217 15.0550894,12.7710334 C15.0943173,12.7116784 15.1370912,12.6545939 15.1798098,12.5976174 C15.0868928,12.7215709 15.2323353,12.5404788 15.2401477,12.5315594 C15.3342282,12.4245799 15.4375617,12.3258712 15.5436101,12.2303518 C15.5966897,12.1825111 15.6525396,12.1377516 15.7083342,12.0929921 C15.5941964,12.1844572 15.8204773,12.0187714 15.8436927,12.0035813 C15.9645347,11.9245495 16.0921917,11.8560588 16.2215663,11.7914062 C16.2320936,11.7861627 16.4506175,11.6903731 16.3030141,11.7502686 C16.3710535,11.7226453 16.4406443,11.6990763 16.5101243,11.6755073 C16.6507465,11.6278287 16.7954687,11.5926914 16.9407451,11.5618788 C16.9528791,11.5593381 17.1964469,11.519714 17.0324431,11.5410667 C17.1337266,11.5278767 17.2357857,11.5217682 17.3377894,11.5166868 C17.5012391,11.5085242 17.6664618,11.5136056 17.829967,11.5136056 C18.5811154,11.5136056 19.3322638,11.5136056 20.0834677,11.5136056 C21.1304324,11.5136056 22.1773417,11.5136056 23.2243064,11.5136056 C23.6471702,11.5136056 24,11.1693684 24,10.7568028 C24,10.3442371 23.6471702,10 23.2243064,10 C21.8756523,10 20.5270536,10 19.1783995,10 C18.6248313,10 18.0713185,10 17.5177503,10 C16.2841759,10 15.0964781,10.4904623 14.2403341,11.3570555 C13.229162,12.3805231 12.8579373,13.7913116 13.077514,15.1750174 C13.2826295,16.4677987 14.2060927,17.6281395 15.3736778,18.2399605 C16.3040669,18.7275037 17.2856517,18.7568028 18.3086807,18.7568028 C18.685834,18.7568028 19.0629319,18.7568028 19.4400852,18.7568028 C19.6165555,18.7568028 19.7917515,18.7649654 19.9672798,18.7842639 C19.803276,18.7662088 20.0463452,18.8026434 20.0589779,18.805076 C20.1322809,18.8190768 20.2046421,18.8374563 20.2768924,18.8557818 C20.348644,18.873945 20.4191768,18.8963248 20.4895987,18.9187045 C20.5163601,18.9271915 20.7836419,19.032333 20.6462334,18.9734105 C20.7797081,19.0306573 20.9076975,19.0993101 21.033249,19.1714226 C21.0957478,19.2073167 21.1560303,19.2467785 21.2162573,19.2861323 C21.2259535,19.292457 21.4152781,19.4315465 21.2914442,19.3361894 C21.4048617,19.423546 21.5101898,19.5203627 21.6123597,19.6198282 C21.6634447,19.669615 21.7115931,19.7222128 21.7596307,19.7747566 C21.7913233,19.8101101 21.8223511,19.8460582 21.8526031,19.882601 C21.8056736,19.8218946 21.8090535,19.826976 21.8627425,19.8977911 C21.9484013,20.0120683 22.0235881,20.133427 22.0948965,20.2566237 C22.1307447,20.3185734 22.1628251,20.3824692 22.1948502,20.4463109 C22.2993472,20.6546479 22.1446517,20.311546 22.2321943,20.5281537 C22.2864929,20.6625403 22.3282695,20.8013595 22.3656136,20.9409897 C22.3845073,21.0116426 22.3989684,21.0833767 22.4134296,21.1550027 C22.4280569,21.2457649 22.430384,21.2515491 22.4203554,21.1724091 C22.4266164,21.2216554 22.4318246,21.2710097 22.4359801,21.3204722 C22.4502196,21.4708597 22.4501642,21.6221662 22.4453992,21.7729321 C22.4430721,21.8478016 22.4359801,21.9224007 22.4289434,21.9969458 C22.4061713,22.2370144 22.4558157,21.8526667 22.4134296,22.0881405 C22.3876101,22.2314465 22.3484375,22.3721578 22.3050541,22.5112473 C22.2835563,22.5800623 22.2578476,22.6475799 22.2321943,22.7149894 C22.1984516,22.7981296 22.1962354,22.8038597 22.2256563,22.7321797 C22.2055437,22.7754255 22.1846,22.818293 22.1627697,22.860728 C22.0988858,22.9881412 22.0235327,23.1097702 21.9447998,23.2288585 C21.9055719,23.2882135 21.8627979,23.345244 21.8200794,23.4022745 C21.9129964,23.278321 21.7675538,23.4594131 21.7596861,23.4683325 C21.665661,23.575312 21.5622721,23.6740207 21.4562237,23.76954 C21.4031441,23.8173808 21.3472941,23.8621403 21.2914996,23.9068457 C21.4056374,23.8153807 21.1793565,23.9810664 21.1561411,23.9962565 C21.0352991,24.0752884 20.9076421,24.143779 20.7782675,24.2084316 C20.7677402,24.2136752 20.5492162,24.3094648 20.6968197,24.2495692 C20.6287802,24.2771925 20.5591895,24.3007615 20.4896541,24.3243305 C20.3490319,24.3720091 20.204365,24.4071464 20.0590333,24.4380131 C20.0468992,24.4405538 19.8033315,24.4801238 19.9673352,24.4588252 C19.8660518,24.4720152 19.7639927,24.4780696 19.661989,24.483151 C19.4985393,24.4913137 19.333372,24.4862863 19.1698114,24.4862863 C18.418663,24.4862863 17.66757,24.4862863 16.9164215,24.4862863 C15.8695122,24.4862863 14.8226029,24.4862863 13.7756936,24.4862863 C13.3528298,24.4862863 13,24.8305235 13,25.2430891 C13,25.6556547 13.352719,26 13.7755828,26 Z" id="Path"></path>
                    <path d="M20,11.2630648 C20,10.0876532 20,8.91229418 20,7.73693519 C20,7.33520024 19.5451429,7 19,7 C18.4548571,7 18,7.33520024 18,7.73693519 C18,8.91234682 18,10.0877058 18,11.2630648 C18,11.6647998 18.4548571,12 19,12 C19.5451429,12 20,11.6647998 20,11.2630648 Z" id="Path"></path>
                    <path d="M20,29.2631269 C20,28.087709 20,26.912291 20,25.7368731 C20,25.335172 19.5451429,25 19,25 C18.4548571,25 18,25.335172 18,25.7368731 C18,26.912291 18,28.087709 18,29.2631269 C18,29.664828 18.4548571,30 19,30 C19.5451429,30 20,29.664828 20,29.2631269 Z" id="Path"></path>
                    <path d="M35.516003,18.5105407 C35.5094842,21.2346862 34.8587227,23.9409626 33.6135896,26.3424589 C32.3485822,28.7823443 30.5521116,30.8521774 28.2737839,32.4513191 C25.7158392,34.2466484 22.6987736,35.3069633 19.5804818,35.503204 C16.643019,35.6879916 13.686212,35.109397 11.0721425,33.8364041 C8.44911632,32.5590632 6.1442367,30.5661676 4.51810147,28.2236336 C2.90950854,25.906286 1.88940455,23.1938057 1.58477249,20.4446331 C1.29413189,17.8217099 1.56866112,15.4162898 2.40788321,12.9480367 C2.50100056,12.6741163 2.60254458,12.4031652 2.70901741,12.134176 C2.81713317,11.861104 2.87892874,11.7200609 3.03357668,11.3864358 C3.28441584,10.8451699 3.56583481,10.3184325 3.86988389,9.80537524 C4.17244902,9.29481007 4.50358004,8.80142456 4.85559223,8.32373408 C5.0247616,8.09408845 5.0886241,8.01349243 5.3078235,7.74609392 C5.50280285,7.50828264 5.70536091,7.27667513 5.91237079,7.04925649 C6.31033219,6.61202309 6.73240764,6.19711266 7.17165441,5.80150285 C7.38258614,5.61151895 7.59918865,5.42784486 7.81891803,5.24809453 C8.07950881,5.03499229 8.15428888,4.97852205 8.45706601,4.75789045 C9.41924328,4.0567581 10.4551407,3.45880987 11.5375702,2.96441692 C11.6684221,2.90465921 11.8003339,2.8473406 11.9325637,2.79076431 C11.7965711,2.84893131 12.0151875,2.75757148 12.0213882,2.75502634 C12.0881656,2.72777216 12.155261,2.70131333 12.2223564,2.67485451 C12.5140569,2.55989913 12.8094673,2.45454105 13.1068387,2.35528069 C13.6839331,2.16269862 14.271945,2.00373358 14.8657337,1.87191666 C16.2776513,1.55838754 17.7246536,1.44613638 19.169112,1.49682703 C19.4644164,1.50716665 19.7593498,1.52662635 20.0537533,1.55160051 C20.1998685,1.56395503 20.3457718,1.57906679 20.4915691,1.59502692 C20.5642293,1.60298047 20.6367304,1.61183543 20.7092846,1.62069039 C20.799275,1.63240862 20.8057938,1.63299189 20.7289468,1.62249319 C20.7770159,1.62906813 20.825085,1.63580214 20.8731011,1.64280127 C21.4683208,1.72795733 22.0585057,1.84704855 22.6419068,1.9923865 C23.2175172,2.1358156 23.78486,2.31174823 24.3430341,2.51249595 C24.6089247,2.60809767 24.8718473,2.71170598 25.1327561,2.81998037 C24.9918876,2.76154825 25.2055223,2.85179459 25.2146379,2.85571834 C25.2791894,2.88371485 25.3433699,2.91250672 25.4076033,2.94124556 C25.5571635,3.00826752 25.7053987,3.0782588 25.8530509,3.1494166 C26.9011378,3.65452034 27.8953788,4.26911801 28.8244324,4.96903081 C28.83217,4.97491644 29.0134759,5.11484598 28.8947076,5.02242567 C28.9495074,5.06510975 29.0038833,5.10843011 29.0582062,5.15175047 C29.1669049,5.23833817 29.2739607,5.32683472 29.3805925,5.41591453 C29.6113985,5.60886776 29.8362687,5.80903222 30.057058,6.01338555 C30.4815714,6.40634417 30.8845676,6.82226205 31.2689615,7.2544582 C31.4381839,7.44476025 31.6022654,7.63962234 31.7631671,7.83697654 C31.8364102,7.92674566 31.9081694,8.01762827 31.9796106,8.10877601 C31.8867583,7.99032107 32.0270968,8.17129095 32.0329795,8.17908543 C32.0750599,8.2344952 32.1163983,8.29038217 32.1577896,8.34626915 C32.4617857,8.75688466 32.7456956,9.18218773 33.0132821,9.61735321 C33.2819816,10.0543215 33.5291109,10.5044397 33.7589099,10.9629886 C33.8743393,11.1932705 33.9833031,11.4267339 34.0885569,11.6617879 C34.2052054,11.9223994 34.2382231,12.0040559 34.3647291,12.3312121 C34.7424453,13.3079616 35.0267261,14.3199719 35.2255213,15.3478893 C35.2759754,15.6088719 35.3189567,15.8712862 35.3576452,16.1342837 C35.3645879,16.1823232 35.3713716,16.2304157 35.3779434,16.2785082 C35.3562672,16.1220353 35.387377,16.3606419 35.388596,16.3707164 C35.4063503,16.5161074 35.4214017,16.6618695 35.4355521,16.8076847 C35.490458,17.3737126 35.514837,17.9422327 35.516003,18.5105407 C35.5168509,18.9151645 35.8528577,19.2528725 36.2579739,19.2528725 C36.661818,19.2528725 37.0007927,18.9152176 36.9999448,18.5105407 C36.9898752,13.6091362 35.0206844,8.86277298 31.5563692,5.396826 C28.0871253,1.92589479 23.2929333,-0.0138180984 18.3946003,7.41102732e-05 C13.1867595,0.0148677218 8.12943286,2.32118645 4.67322638,6.21052765 C1.27865649,10.0306199 -0.404292512,15.1783725 0.0825993955,20.2675339 C0.660647729,26.3089479 4.25321785,31.7747897 9.55777985,34.7198849 C15.1248935,37.8107423 22.0769489,37.7410691 27.6144368,34.6212608 C30.1834051,33.173926 32.3685094,31.0889812 33.9907228,28.631704 C35.5543205,26.2632945 36.5037252,23.5465194 36.8617262,20.7384904 C36.9558505,19.9998173 36.9982488,19.2549934 36.9999978,18.5105407 C37.0010047,18.1058639 36.661765,17.768209 36.2580269,17.768209 C35.8528047,17.768209 35.5170099,18.1059169 35.516003,18.5105407 Z" id="Path"></path>
                    <path d="M35.516003,18.5105407 C35.5094842,21.2346862 34.8587227,23.9409626 33.6135896,26.3424589 C32.3485822,28.7823443 30.5521116,30.8521774 28.2737839,32.4513191 C25.7158392,34.2466484 22.6987736,35.3069633 19.5804818,35.503204 C16.643019,35.6879916 13.686212,35.109397 11.0721425,33.8364041 C8.44911632,32.5590632 6.1442367,30.5661676 4.51810147,28.2236336 C2.90950854,25.906286 1.88940455,23.1938057 1.58477249,20.4446331 C1.29413189,17.8217099 1.56866112,15.4162898 2.40788321,12.9480367 C2.50100056,12.6741163 2.60254458,12.4031652 2.70901741,12.134176 C2.81713317,11.861104 2.87892874,11.7200609 3.03357668,11.3864358 C3.28441584,10.8451699 3.56583481,10.3184325 3.86988389,9.80537524 C4.17244902,9.29481007 4.50358004,8.80142456 4.85559223,8.32373408 C5.0247616,8.09408845 5.0886241,8.01349243 5.3078235,7.74609392 C5.50280285,7.50828264 5.70536091,7.27667513 5.91237079,7.04925649 C6.31033219,6.61202309 6.73240764,6.19711266 7.17165441,5.80150285 C7.38258614,5.61151895 7.59918865,5.42784486 7.81891803,5.24809453 C8.07950881,5.03499229 8.15428888,4.97852205 8.45706601,4.75789045 C9.41924328,4.0567581 10.4551407,3.45880987 11.5375702,2.96441692 C11.6684221,2.90465921 11.8003339,2.8473406 11.9325637,2.79076431 C11.7965711,2.84893131 12.0151875,2.75757148 12.0213882,2.75502634 C12.0881656,2.72777216 12.155261,2.70131333 12.2223564,2.67485451 C12.5140569,2.55989913 12.8094673,2.45454105 13.1068387,2.35528069 C13.6839331,2.16269862 14.271945,2.00373358 14.8657337,1.87191666 C16.2776513,1.55838754 17.7246536,1.44613638 19.169112,1.49682703 C19.4644164,1.50716665 19.7593498,1.52662635 20.0537533,1.55160051 C20.1998685,1.56395503 20.3457718,1.57906679 20.4915691,1.59502692 C20.5642293,1.60298047 20.6367304,1.61183543 20.7092846,1.62069039 C20.799275,1.63240862 20.8057938,1.63299189 20.7289468,1.62249319 C20.7770159,1.62906813 20.825085,1.63580214 20.8731011,1.64280127 C21.4683208,1.72795733 22.0585057,1.84704855 22.6419068,1.9923865 C23.2175172,2.1358156 23.78486,2.31174823 24.3430341,2.51249595 C24.6089247,2.60809767 24.8718473,2.71170598 25.1327561,2.81998037 C24.9918876,2.76154825 25.2055223,2.85179459 25.2146379,2.85571834 C25.2791894,2.88371485 25.3433699,2.91250672 25.4076033,2.94124556 C25.5571635,3.00826752 25.7053987,3.0782588 25.8530509,3.1494166 C26.9011378,3.65452034 27.8953788,4.26911801 28.8244324,4.96903081 C28.83217,4.97491644 29.0134759,5.11484598 28.8947076,5.02242567 C28.9495074,5.06510975 29.0038833,5.10843011 29.0582062,5.15175047 C29.1669049,5.23833817 29.2739607,5.32683472 29.3805925,5.41591453 C29.6113985,5.60886776 29.8362687,5.80903222 30.057058,6.01338555 C30.4815714,6.40634417 30.8845676,6.82226205 31.2689615,7.2544582 C31.4381839,7.44476025 31.6022654,7.63962234 31.7631671,7.83697654 C31.8364102,7.92674566 31.9081694,8.01762827 31.9796106,8.10877601 C31.8867583,7.99032107 32.0270968,8.17129095 32.0329795,8.17908543 C32.0750599,8.2344952 32.1163983,8.29038217 32.1577896,8.34626915 C32.4617857,8.75688466 32.7456956,9.18218773 33.0132821,9.61735321 C33.2819816,10.0543215 33.5291109,10.5044397 33.7589099,10.9629886 C33.8743393,11.1932705 33.9833031,11.4267339 34.0885569,11.6617879 C34.2052054,11.9223994 34.2382231,12.0040559 34.3647291,12.3312121 C34.7424453,13.3079616 35.0267261,14.3199719 35.2255213,15.3478893 C35.2759754,15.6088719 35.3189567,15.8712862 35.3576452,16.1342837 C35.3645879,16.1823232 35.3713716,16.2304157 35.3779434,16.2785082 C35.3562672,16.1220353 35.387377,16.3606419 35.388596,16.3707164 C35.4063503,16.5161074 35.4214017,16.6618695 35.4355521,16.8076847 C35.490458,17.3737126 35.514837,17.9422327 35.516003,18.5105407 C35.5168509,18.9151645 35.8528577,19.2528725 36.2579739,19.2528725 C36.661818,19.2528725 37.0007927,18.9152176 36.9999448,18.5105407 C36.9898752,13.6091362 35.0206844,8.86277298 31.5563692,5.396826 C28.0871253,1.92589479 23.2929333,-0.0138180984 18.3946003,7.41102732e-05 C13.1867595,0.0148677218 8.12943286,2.32118645 4.67322638,6.21052765 C1.27865649,10.0306199 -0.404292512,15.1783725 0.0825993955,20.2675339 C0.660647729,26.3089479 4.25321785,31.7747897 9.55777985,34.7198849 C15.1248935,37.8107423 22.0769489,37.7410691 27.6144368,34.6212608 C30.1834051,33.173926 32.3685094,31.0889812 33.9907228,28.631704 C35.5543205,26.2632945 36.5037252,23.5465194 36.8617262,20.7384904 C36.9558505,19.9998173 36.9982488,19.2549934 36.9999978,18.5105407 C37.0010047,18.1058639 36.661765,17.768209 36.2580269,17.768209 C35.8528047,17.768209 35.5170099,18.1059169 35.516003,18.5105407 Z" id="Path-Copy" transform="translate(18.500000, 18.500000) scale(-1, 1) translate(-18.500000, -18.500000) "></path>
                    <path d="M35.7637308,35.6308066 C34.2988659,34.1659417 32.8340583,32.7011341 31.3691934,31.2362692 C30.6380198,30.5050956 29.5050956,31.6380198 30.2362692,32.3691934 C31.7011341,33.8340583 33.1659417,35.2988659 34.6308066,36.7637308 C35.3619802,37.4949044 36.4949044,36.3619802 35.7637308,35.6308066 Z" id="Path"></path>
                    <path d="M34.0352028,26.515704 C32.6478595,29.0819175 30.6288588,31.2456687 28.1152507,32.84189 C25.3925968,34.5707806 22.2102035,35.49305 18.9801359,35.5363186 C15.7964512,35.578951 12.6629698,34.7338865 9.93870167,33.1412709 C7.25791076,31.5740545 5.05897454,29.284103 3.5677809,26.5882427 C2.16601691,24.0541626 1.47360974,21.1747286 1.5045496,18.281614 C1.51859361,16.9683889 1.64859483,15.9441518 1.93663148,14.7009732 C2.07395065,14.1083092 2.24603008,13.523758 2.44469088,12.9483273 C2.53923233,12.6743984 2.64232933,12.4034391 2.75043051,12.1344416 C2.86019975,11.8613612 2.92294041,11.7203669 3.07995347,11.3867316 C3.5881205,10.3068179 4.21332091,9.28173236 4.92983426,8.32398901 C5.10164465,8.09433635 5.16643002,8.01373786 5.38903559,7.74638419 C5.58699689,7.50856562 5.79259898,7.27695102 6.0027748,7.04952542 C6.40682247,6.61227862 6.83540679,6.19735549 7.28137125,5.80178659 C7.49552889,5.61179687 7.71544403,5.42811715 7.93853388,5.24841434 C8.20311004,5.03530558 8.27903376,4.97883361 8.58644145,4.75819525 C9.07351556,4.40859931 9.58028357,4.08604628 10.1002885,3.78624111 C10.6231452,3.48479216 11.1630592,3.21261319 11.7140577,2.96471982 C11.846857,2.90496028 11.9808401,2.84763991 12.1150921,2.79106189 C11.9769658,2.84923067 12.1989795,2.75786804 12.2052751,2.75532282 C12.2730738,2.72806781 12.3411953,2.70160817 12.4093168,2.67514854 C12.7054785,2.56018964 13.0054068,2.45482833 13.307326,2.35561795 C14.5409924,1.95018635 15.8230326,1.67949208 17.1176102,1.55901855 C17.8964875,1.48653294 18.6805305,1.46988299 19.4622059,1.4969259 C19.7620266,1.50726584 20.0615244,1.52672613 20.3604304,1.55170106 C20.5087803,1.56405596 20.6569149,1.57916818 20.804942,1.5951288 C20.8787134,1.6030826 20.9523233,1.61193783 21.0259871,1.62079305 C21.1173539,1.63251165 21.1239723,1.63309493 21.04595,1.62259591 C21.0947543,1.62917105 21.1435586,1.6359583 21.192309,1.64290461 C22.3930984,1.81205539 23.5742478,2.10841391 24.7153636,2.51262593 C25.7447731,2.87722804 26.7699318,3.36590939 27.8058521,3.98837364 C28.3089073,4.29061797 28.7948515,4.62001126 29.2654064,4.969183 C29.2733162,4.97501579 29.4573411,5.11500263 29.3367564,5.0225795 C29.3924481,5.06526488 29.4476556,5.10858657 29.5028093,5.15185523 C29.6131166,5.23844558 29.7218635,5.32694484 29.8301261,5.41602738 C30.0644619,5.60898652 30.2927712,5.80915711 30.5169372,6.0135167 C30.9479429,6.40648735 31.3571023,6.82241797 31.7473751,7.25462736 C31.9348437,7.46222149 32.1161782,7.67522421 32.2935308,7.89119634 C32.3379228,7.94522914 32.3816691,7.99973917 32.4253616,8.05430223 C32.5694606,8.23395202 32.3391604,7.94204762 32.4804076,8.12392448 C32.5804913,8.25282903 32.678046,8.3836425 32.7745784,8.51519832 C33.3003408,9.23194158 33.7673444,9.98993855 34.1790328,10.7756147 C34.6220378,11.6212095 34.8736461,12.2219864 35.1806772,13.132166 C35.4715657,13.9944108 35.6891132,14.8799867 35.841983,15.7757965 C35.858287,15.8712951 35.8731381,15.9670058 35.8878817,16.0627695 C35.8951996,16.1107574 35.9022485,16.1587983 35.909136,16.2067863 C35.9436272,16.4443397 35.8905183,16.0601182 35.9211353,16.2986261 C35.9521828,16.5411109 35.9766656,16.7843381 35.9975971,17.0278303 C36.0398367,17.5210719 35.5564754,8.86293837 32.0391245,5.39688524 C28.5167156,1.92584773 23.6490953,-0.0138185176 18.6757953,7.41165587e-05 C13.3885768,0.0148681811 8.25358236,2.3215757 4.74467937,6.21066484 C1.28953103,10.0402596 -0.418725913,15.2040774 0.0875040076,20.3050603 C0.386302344,23.3159441 1.43077821,26.2303748 3.13209386,28.750032 C4.94694535,31.4379385 7.47658831,33.6430495 10.4083956,35.0840657 C16.4570038,38.0569303 23.8814941,37.5379185 29.4416291,33.7515924 C34.4688451,30.3282246 35.3615812,24.0623285 34.0352028,26.515704 Z" id="Path"></path>
                    <path d="M44.3111261,42.7423362 C44.3109165,42.7421266 44.4610753,42.9304932 44.3887728,42.8278764 C44.4313684,42.8882731 44.4649,42.9544843 44.4982221,43.0201716 C44.4371317,42.8996401 44.5211179,43.1081738 44.5237376,43.1173931 C44.5284006,43.1336316 44.5579503,43.3568847 44.5439613,43.2058143 C44.5506153,43.2772637 44.5472621,43.3492369 44.5439613,43.4207911 C44.5508772,43.2719731 44.528191,43.4904595 44.5237376,43.5092123 C44.5220086,43.5165982 44.442109,43.7316273 44.4982221,43.6064338 C44.4863288,43.6328868 44.3533026,43.8484398 44.4139215,43.770914 C44.241548,43.9916528 44.0137949,44.1815385 43.8165871,44.3787577 C43.5439331,44.6514073 43.2712791,44.9240045 42.9985727,45.1966541 C42.9247507,45.2704607 42.8519242,45.3435863 42.7727058,45.4118404 C42.8666991,45.3307527 42.6745734,45.4623893 42.6736303,45.4629655 C42.4841766,45.5706634 42.7843894,45.4327933 42.5803705,45.5017284 C42.5119974,45.5248289 42.4407951,45.5381864 42.3700119,45.5514391 C42.5089586,45.5254051 42.2400245,45.5433722 42.2073836,45.5418008 C42.3562325,45.5487152 42.137753,45.5260337 42.1189439,45.5215812 C42.1115565,45.5198526 41.8964825,45.4399697 42.0217546,45.4960711 C41.8464995,45.4176548 41.8588643,45.418493 41.7438613,45.3090664 C41.7294531,45.2952899 41.7156214,45.2808324 41.7015276,45.2667416 C41.6022949,45.1675296 41.5031671,45.06837 41.4039344,44.9692104 C40.987304,44.5526667 40.570726,44.1361755 40.1540956,43.7196318 C38.9747256,42.5405073 37.7953031,41.3613829 36.6159855,40.1822584 C36.1542446,39.7206137 35.6924512,39.2589165 35.2307103,38.7972717 C35.0194611,38.5860665 34.7947992,38.3820376 34.5994251,38.1555892 C34.6805297,38.2495629 34.5488657,38.0575296 34.5483418,38.0565343 C34.4405691,37.8671201 34.5785203,38.1673228 34.5095185,37.9633463 C34.4864655,37.8949351 34.4731052,37.8237476 34.4597974,37.7530316 C34.4878801,37.90274 34.4661369,37.6777059 34.4661369,37.662096 C34.4661369,37.4420905 34.4323957,37.7887563 34.4731052,37.5721556 C34.4864131,37.5010729 34.5096233,37.432295 34.532781,37.3639362 C34.4893471,37.4923775 34.5802492,37.2832675 34.5848074,37.2752007 C34.6346333,37.2044846 34.6395583,37.1928558 34.5994251,37.2403141 C34.6318565,37.2008703 34.6660692,37.1630503 34.7022205,37.1269589 C34.8860681,36.9339303 35.0797656,36.7494924 35.2682762,36.5610211 C35.5299801,36.2993193 35.7916839,36.03767 36.0534401,35.7760207 C36.0763883,35.7530772 36.0993365,35.7300814 36.1222847,35.707138 C36.1421417,35.6872851 36.1616844,35.6694228 36.182956,35.6491508 C36.3398735,35.4997567 36.0966121,35.6982854 36.2755347,35.5847731 C36.2816647,35.5808968 36.4925996,35.4825229 36.3642887,35.5327051 C36.4316663,35.5063568 36.5023447,35.4896469 36.5726039,35.4730417 C36.7875207,35.4222309 36.4428261,35.4762894 36.662563,35.4660749 C36.710398,35.4649749 36.7581805,35.4660749 36.8059107,35.469375 C36.7299406,35.4553365 36.7360182,35.4565413 36.8242483,35.4729893 C36.8953458,35.4863468 36.964138,35.5095521 37.0325111,35.5326527 C36.9040431,35.4892278 37.1131966,35.580111 37.1212127,35.5847207 C37.305689,35.6895899 37.0500628,35.5078235 37.2137914,35.6490985 C37.2335437,35.6661227 37.2520384,35.6847184 37.2705332,35.7031569 C37.2889232,35.7215431 37.3072084,35.7398245 37.3255984,35.7582107 C37.4317994,35.8643895 37.5380003,35.9706207 37.6442013,36.0767472 C38.0703672,36.5028244 38.4964808,36.9288492 38.922542,37.3548217 C40.7186843,39.1506948 42.514879,40.9465678 44.3111261,42.7423362 C44.9806059,43.4116766 46.0179381,42.3745604 45.3484583,41.70522 C43.5102967,39.8674411 41.672135,38.0297146 39.8340258,36.1919357 C39.4271405,35.7851352 39.0203076,35.3784394 38.6134223,34.9716388 C38.2066942,34.5649954 37.8021666,34.1976911 37.2142106,34.058721 C36.4454457,33.8770593 35.654833,34.1273417 35.0899299,34.6650455 C34.8968611,34.8488024 34.7123848,35.0425644 34.5238742,35.2309833 C34.2621704,35.4926851 34.0004665,35.7543344 33.7387103,36.0159837 C33.3235469,36.4311131 33.0636244,36.930735 33.0090308,37.5189877 C32.9355755,38.3105359 33.3185695,38.9598138 33.8541324,39.4952652 C34.2195747,39.8606314 34.585017,40.2259976 34.9504593,40.5913638 C36.1177789,41.7584403 37.2852033,42.9255693 38.4525229,44.0926458 C39.1984444,44.8384119 39.9444182,45.5842304 40.6903396,46.3299965 C41.5792943,47.2187661 43.0433164,47.226152 43.9344717,46.3351823 C44.3958459,45.8739042 44.8571676,45.4126785 45.3185418,44.951348 C46.2203329,44.0496924 46.2238432,42.6243189 45.3484583,41.70522 C44.6949584,41.0190649 43.6591456,42.0578049 44.3111261,42.7423362 Z" id="Path"></path>
                    <path d="M44.3111261,42.7423362 C44.3109165,42.7421266 44.4610753,42.9304932 44.3887728,42.8278764 C44.4313684,42.8882731 44.4649,42.9544843 44.4982221,43.0201716 C44.4371317,42.8996401 44.5211179,43.1081738 44.5237376,43.1173931 C44.5284006,43.1336316 44.5579503,43.3568847 44.5439613,43.2058143 C44.5506153,43.2772637 44.5472621,43.3492369 44.5439613,43.4207911 C44.5508772,43.2719731 44.528191,43.4904595 44.5237376,43.5092123 C44.5220086,43.5165982 44.442109,43.7316273 44.4982221,43.6064338 C44.4863288,43.6328868 44.3533026,43.8484398 44.4139215,43.770914 C44.241548,43.9916528 44.0137949,44.1815385 43.8165871,44.3787577 C43.5439331,44.6514073 43.2712791,44.9240045 42.9985727,45.1966541 C42.9247507,45.2704607 42.8519242,45.3435863 42.7727058,45.4118404 C42.8666991,45.3307527 42.6745734,45.4623893 42.6736303,45.4629655 C42.4841766,45.5706634 42.7843894,45.4327933 42.5803705,45.5017284 C42.5119974,45.5248289 42.4407951,45.5381864 42.3700119,45.5514391 C42.5089586,45.5254051 42.2400245,45.5433722 42.2073836,45.5418008 C42.3562325,45.5487152 42.137753,45.5260337 42.1189439,45.5215812 C42.1115565,45.5198526 41.8964825,45.4399697 42.0217546,45.4960711 C41.8464995,45.4176548 41.8588643,45.418493 41.7438613,45.3090664 C41.7294531,45.2952899 41.7156214,45.2808324 41.7015276,45.2667416 C41.6022949,45.1675296 41.5031671,45.06837 41.4039344,44.9692104 C40.987304,44.5526667 40.570726,44.1361755 40.1540956,43.7196318 C38.9747256,42.5405073 37.7953031,41.3613829 36.6159855,40.1822584 C36.1542446,39.7206137 35.6924512,39.2589165 35.2307103,38.7972717 C35.0194611,38.5860665 34.7947992,38.3820376 34.5994251,38.1555892 C34.6805297,38.2495629 34.5488657,38.0575296 34.5483418,38.0565343 C34.4405691,37.8671201 34.5785203,38.1673228 34.5095185,37.9633463 C34.4864655,37.8949351 34.4731052,37.8237476 34.4597974,37.7530316 C34.4878801,37.90274 34.4661369,37.6777059 34.4661369,37.662096 C34.4661369,37.4420905 34.4323957,37.7887563 34.4731052,37.5721556 C34.4864131,37.5010729 34.5096233,37.432295 34.532781,37.3639362 C34.4893471,37.4923775 34.5802492,37.2832675 34.5848074,37.2752007 C34.6346333,37.2044846 34.6395583,37.1928558 34.5994251,37.2403141 C34.6318565,37.2008703 34.6660692,37.1630503 34.7022205,37.1269589 C34.8860681,36.9339303 35.0797656,36.7494924 35.2682762,36.5610211 C35.5299801,36.2993193 35.7916839,36.03767 36.0534401,35.7760207 C36.0763883,35.7530772 36.0993365,35.7300814 36.1222847,35.707138 C36.1421417,35.6872851 36.1616844,35.6694228 36.182956,35.6491508 C36.3398735,35.4997567 36.0966121,35.6982854 36.2755347,35.5847731 C36.2816647,35.5808968 36.4925996,35.4825229 36.3642887,35.5327051 C36.4316663,35.5063568 36.5023447,35.4896469 36.5726039,35.4730417 C36.7875207,35.4222309 36.4428261,35.4762894 36.662563,35.4660749 C36.710398,35.4649749 36.7581805,35.4660749 36.8059107,35.469375 C36.7299406,35.4553365 36.7360182,35.4565413 36.8242483,35.4729893 C36.8953458,35.4863468 36.964138,35.5095521 37.0325111,35.5326527 C36.9040431,35.4892278 37.1131966,35.580111 37.1212127,35.5847207 C37.305689,35.6895899 37.0500628,35.5078235 37.2137914,35.6490985 C37.2335437,35.6661227 37.2520384,35.6847184 37.2705332,35.7031569 C37.2889232,35.7215431 37.3072084,35.7398245 37.3255984,35.7582107 C37.4317994,35.8643895 37.5380003,35.9706207 37.6442013,36.0767472 C38.0703672,36.5028244 38.4964808,36.9288492 38.922542,37.3548217 C40.7186843,39.1506948 42.514879,40.9465678 44.3111261,42.7423362 C44.9806059,43.4116766 46.0179381,42.3745604 45.3484583,41.70522 C43.5102967,39.8674411 41.672135,38.0297146 39.8340258,36.1919357 C39.4271405,35.7851352 39.0203076,35.3784394 38.6134223,34.9716388 C38.2066942,34.5649954 37.8021666,34.1976911 37.2142106,34.058721 C36.4454457,33.8770593 35.654833,34.1273417 35.0899299,34.6650455 C34.8968611,34.8488024 34.7123848,35.0425644 34.5238742,35.2309833 C34.2621704,35.4926851 34.0004665,35.7543344 33.7387103,36.0159837 C33.3235469,36.4311131 33.0636244,36.930735 33.0090308,37.5189877 C32.9355755,38.3105359 33.3185695,38.9598138 33.8541324,39.4952652 C34.2195747,39.8606314 34.585017,40.2259976 34.9504593,40.5913638 C36.1177789,41.7584403 37.2852033,42.9255693 38.4525229,44.0926458 C39.1984444,44.8384119 39.9444182,45.5842304 40.6903396,46.3299965 C41.5792943,47.2187661 43.0433164,47.226152 43.9344717,46.3351823 C44.3958459,45.8739042 44.8571676,45.4126785 45.3185418,44.951348 C46.2203329,44.0496924 46.2238432,42.6243189 45.3484583,41.70522 C44.6949584,41.0190649 43.6591456,42.0578049 44.3111261,42.7423362 Z" id="Path-Copy-2" transform="translate(39.500000, 40.500000) scale(-1, -1) translate(-39.500000, -40.500000) "></path>
                    <path d="M35.7637308,35.6308066 C34.2988659,34.1659417 32.8340583,32.7011341 31.3691934,31.2362692 C30.6380198,30.5050956 29.5050956,31.6380198 30.2362692,32.3691934 C31.7011341,33.8340583 33.1659417,35.2988659 34.6308066,36.7637308 C35.3619802,37.4949044 36.4949044,36.3619802 35.7637308,35.6308066 Z" id="Path"></path>
                </g>
            </g>
        </g>
    </g>
</svg>